<mxfile host="app.diagrams.net" modified="2023-06-13T01:11:22.199Z" agent="Mozilla/5.0 (Windows NT 10.0; Win64; x64) AppleWebKit/537.36 (KHTML, like Gecko) Chrome/114.0.0.0 Safari/537.36 Edg/114.0.1823.43" etag="tr7pQg36T1QZPsjlyHHx" version="21.3.8" type="github">
  <diagram name="Page-1" id="2YBvvXClWsGukQMizWep">
    <mxGraphModel dx="1126" dy="606" grid="1" gridSize="10" guides="1" tooltips="1" connect="1" arrows="1" fold="1" page="1" pageScale="1" pageWidth="850" pageHeight="1100" math="0" shadow="0">
      <root>
        <mxCell id="0" />
        <mxCell id="1" parent="0" />
        <mxCell id="4YAcLMJkFMEnvs6EcW_F-2" value="&lt;div style=&quot;orphans: 4; text-align: left;&quot;&gt;寄存器&lt;font face=&quot;Open Sans, Clear Sans, Helvetica Neue, Helvetica, Arial, Segoe UI Emoji, sans-serif&quot; color=&quot;#333333&quot;&gt;&lt;span style=&quot;font-size: 16px;&quot;&gt;&lt;br&gt;&lt;/span&gt;&lt;/font&gt;&lt;/div&gt;" style="rounded=1;whiteSpace=wrap;html=1;" vertex="1" parent="1">
          <mxGeometry x="280" y="210" width="120" height="60" as="geometry" />
        </mxCell>
        <mxCell id="4YAcLMJkFMEnvs6EcW_F-3" value="高速缓存（一级缓存、二级缓存、三级缓存）" style="rounded=1;whiteSpace=wrap;html=1;" vertex="1" parent="1">
          <mxGeometry x="280" y="280" width="120" height="60" as="geometry" />
        </mxCell>
        <mxCell id="4YAcLMJkFMEnvs6EcW_F-4" value="固定磁盘" style="rounded=1;whiteSpace=wrap;html=1;" vertex="1" parent="1">
          <mxGeometry x="280" y="490" width="120" height="60" as="geometry" />
        </mxCell>
        <mxCell id="4YAcLMJkFMEnvs6EcW_F-5" value="主存储器" style="rounded=1;whiteSpace=wrap;html=1;" vertex="1" parent="1">
          <mxGeometry x="280" y="350" width="120" height="60" as="geometry" />
        </mxCell>
        <mxCell id="4YAcLMJkFMEnvs6EcW_F-6" value="磁盘缓存" style="rounded=1;whiteSpace=wrap;html=1;" vertex="1" parent="1">
          <mxGeometry x="280" y="420" width="120" height="60" as="geometry" />
        </mxCell>
        <mxCell id="4YAcLMJkFMEnvs6EcW_F-7" value="可移动存储介质" style="rounded=1;whiteSpace=wrap;html=1;" vertex="1" parent="1">
          <mxGeometry x="280" y="560" width="120" height="60" as="geometry" />
        </mxCell>
        <mxCell id="4YAcLMJkFMEnvs6EcW_F-8" value="" style="shape=curlyBracket;whiteSpace=wrap;html=1;rounded=1;labelPosition=left;verticalLabelPosition=middle;align=right;verticalAlign=middle;" vertex="1" parent="1">
          <mxGeometry x="230" y="510" width="20" height="110" as="geometry" />
        </mxCell>
        <mxCell id="4YAcLMJkFMEnvs6EcW_F-10" value="辅存" style="text;align=center;fontStyle=1;verticalAlign=middle;spacingLeft=3;spacingRight=3;strokeColor=none;rotatable=0;points=[[0,0.5],[1,0.5]];portConstraint=eastwest;html=1;" vertex="1" parent="1">
          <mxGeometry x="160" y="552" width="80" height="26" as="geometry" />
        </mxCell>
        <mxCell id="4YAcLMJkFMEnvs6EcW_F-11" value="" style="shape=curlyBracket;whiteSpace=wrap;html=1;rounded=1;labelPosition=left;verticalLabelPosition=middle;align=right;verticalAlign=middle;" vertex="1" parent="1">
          <mxGeometry x="230" y="310" width="20" height="150" as="geometry" />
        </mxCell>
        <mxCell id="4YAcLMJkFMEnvs6EcW_F-12" value="主存（广义上）" style="text;align=center;fontStyle=1;verticalAlign=middle;spacingLeft=3;spacingRight=3;strokeColor=none;rotatable=0;points=[[0,0.5],[1,0.5]];portConstraint=eastwest;html=1;" vertex="1" parent="1">
          <mxGeometry x="150" y="372" width="80" height="26" as="geometry" />
        </mxCell>
        <mxCell id="4YAcLMJkFMEnvs6EcW_F-13" value="" style="shape=curlyBracket;whiteSpace=wrap;html=1;rounded=1;labelPosition=left;verticalLabelPosition=middle;align=right;verticalAlign=middle;" vertex="1" parent="1">
          <mxGeometry x="230" y="220" width="20" height="50" as="geometry" />
        </mxCell>
        <mxCell id="4YAcLMJkFMEnvs6EcW_F-14" value="CPU寄存器" style="text;align=center;fontStyle=1;verticalAlign=middle;spacingLeft=3;spacingRight=3;strokeColor=none;rotatable=0;points=[[0,0.5],[1,0.5]];portConstraint=eastwest;html=1;" vertex="1" parent="1">
          <mxGeometry x="150" y="232" width="80" height="26" as="geometry" />
        </mxCell>
        <mxCell id="4YAcLMJkFMEnvs6EcW_F-15" value="" style="endArrow=open;endFill=1;endSize=12;html=1;rounded=0;" edge="1" parent="1">
          <mxGeometry width="160" relative="1" as="geometry">
            <mxPoint x="410" y="380" as="sourcePoint" />
            <mxPoint x="460" y="380" as="targetPoint" />
          </mxGeometry>
        </mxCell>
        <mxCell id="4YAcLMJkFMEnvs6EcW_F-16" value="狭义上的，指的是我电脑上16GB内存" style="text;align=center;fontStyle=1;verticalAlign=middle;spacingLeft=3;spacingRight=3;strokeColor=none;rotatable=0;points=[[0,0.5],[1,0.5]];portConstraint=eastwest;html=1;" vertex="1" parent="1">
          <mxGeometry x="530" y="367" width="80" height="26" as="geometry" />
        </mxCell>
        <mxCell id="4YAcLMJkFMEnvs6EcW_F-22" value="" style="endArrow=open;endFill=1;endSize=12;html=1;rounded=0;" edge="1" parent="1">
          <mxGeometry width="160" relative="1" as="geometry">
            <mxPoint x="410" y="449.5" as="sourcePoint" />
            <mxPoint x="460" y="449.5" as="targetPoint" />
          </mxGeometry>
        </mxCell>
        <mxCell id="4YAcLMJkFMEnvs6EcW_F-23" value="" style="endArrow=open;endFill=1;endSize=12;html=1;rounded=0;" edge="1" parent="1">
          <mxGeometry width="160" relative="1" as="geometry">
            <mxPoint x="410" y="310" as="sourcePoint" />
            <mxPoint x="460" y="310" as="targetPoint" />
          </mxGeometry>
        </mxCell>
        <mxCell id="4YAcLMJkFMEnvs6EcW_F-24" value="" style="endArrow=open;endFill=1;endSize=12;html=1;rounded=0;" edge="1" parent="1">
          <mxGeometry width="160" relative="1" as="geometry">
            <mxPoint x="410" y="520" as="sourcePoint" />
            <mxPoint x="460" y="520" as="targetPoint" />
          </mxGeometry>
        </mxCell>
        <mxCell id="4YAcLMJkFMEnvs6EcW_F-25" value="" style="endArrow=open;endFill=1;endSize=12;html=1;rounded=0;" edge="1" parent="1">
          <mxGeometry width="160" relative="1" as="geometry">
            <mxPoint x="410" y="589.5" as="sourcePoint" />
            <mxPoint x="460" y="589.5" as="targetPoint" />
          </mxGeometry>
        </mxCell>
        <mxCell id="4YAcLMJkFMEnvs6EcW_F-26" value="" style="endArrow=open;endFill=1;endSize=12;html=1;rounded=0;" edge="1" parent="1">
          <mxGeometry width="160" relative="1" as="geometry">
            <mxPoint x="410" y="239.5" as="sourcePoint" />
            <mxPoint x="460" y="239.5" as="targetPoint" />
          </mxGeometry>
        </mxCell>
        <mxCell id="4YAcLMJkFMEnvs6EcW_F-27" value="主存储器和固定磁盘之间的缓存，如进程挂&lt;br&gt;起时就放在这块区域，物理上属于固定磁盘" style="text;align=center;fontStyle=1;verticalAlign=middle;spacingLeft=3;spacingRight=3;strokeColor=none;rotatable=0;points=[[0,0.5],[1,0.5]];portConstraint=eastwest;html=1;" vertex="1" parent="1">
          <mxGeometry x="540" y="437" width="80" height="26" as="geometry" />
        </mxCell>
        <mxCell id="4YAcLMJkFMEnvs6EcW_F-28" value="C盘、D盘" style="text;align=center;fontStyle=1;verticalAlign=middle;spacingLeft=3;spacingRight=3;strokeColor=none;rotatable=0;points=[[0,0.5],[1,0.5]];portConstraint=eastwest;html=1;" vertex="1" parent="1">
          <mxGeometry x="470" y="510" width="80" height="26" as="geometry" />
        </mxCell>
        <mxCell id="4YAcLMJkFMEnvs6EcW_F-29" value="U盘" style="text;align=center;fontStyle=1;verticalAlign=middle;spacingLeft=3;spacingRight=3;strokeColor=none;rotatable=0;points=[[0,0.5],[1,0.5]];portConstraint=eastwest;html=1;" vertex="1" parent="1">
          <mxGeometry x="470" y="577" width="80" height="26" as="geometry" />
        </mxCell>
        <mxCell id="4YAcLMJkFMEnvs6EcW_F-30" value="CPU寄存器和主存储器之间的缓存，L1、L2、L3" style="text;align=center;fontStyle=1;verticalAlign=middle;spacingLeft=3;spacingRight=3;strokeColor=none;rotatable=0;points=[[0,0.5],[1,0.5]];portConstraint=eastwest;html=1;" vertex="1" parent="1">
          <mxGeometry x="560" y="297" width="80" height="26" as="geometry" />
        </mxCell>
        <mxCell id="4YAcLMJkFMEnvs6EcW_F-32" value="它们可用来暂存指令、数据和地址。既要对接控制器的命令，传达命&lt;br&gt;令给运算器；还要帮运算器记录处理完或者将要处理的数据。" style="text;align=center;fontStyle=1;verticalAlign=middle;spacingLeft=3;spacingRight=3;strokeColor=none;rotatable=0;points=[[0,0.5],[1,0.5]];portConstraint=eastwest;html=1;" vertex="1" parent="1">
          <mxGeometry x="610" y="227" width="80" height="26" as="geometry" />
        </mxCell>
        <mxCell id="4YAcLMJkFMEnvs6EcW_F-33" value="" style="endArrow=open;endFill=1;endSize=12;html=1;rounded=0;" edge="1" parent="1">
          <mxGeometry width="160" relative="1" as="geometry">
            <mxPoint x="120" y="577" as="sourcePoint" />
            <mxPoint x="120" y="227" as="targetPoint" />
          </mxGeometry>
        </mxCell>
        <mxCell id="4YAcLMJkFMEnvs6EcW_F-34" value="速&lt;br&gt;度&lt;br&gt;越&lt;br&gt;来&lt;br&gt;越&lt;br&gt;快" style="text;align=center;fontStyle=1;verticalAlign=middle;spacingLeft=3;spacingRight=3;strokeColor=none;rotatable=0;points=[[0,0.5],[1,0.5]];portConstraint=eastwest;html=1;" vertex="1" parent="1">
          <mxGeometry x="60" y="384" width="80" height="26" as="geometry" />
        </mxCell>
      </root>
    </mxGraphModel>
  </diagram>
</mxfile>
